<?xml version="1.0" encoding="utf-8"?>
<!-- Generator: Adobe Illustrator 16.0.0, SVG Export Plug-In . SVG Version: 6.00 Build 0)  -->
<!DOCTYPE svg PUBLIC "-//W3C//DTD SVG 1.1//EN" "http://www.w3.org/Graphics/SVG/1.1/DTD/svg11.dtd">
<svg version="1.1" id="Layer_1" xmlns="http://www.w3.org/2000/svg" xmlns:xlink="http://www.w3.org/1999/xlink" x="0px" y="0px"
	 width="1157.55px" height="466.082px" viewBox="0 0 1157.55 466.082" enable-background="new 0 0 1157.55 466.082"
	 xml:space="preserve">
<rect x="9.775" y="94.515" fill="#FFFFFF" width="40.587" height="268.933"/>
<g>
	<path fill="#FFFFFF" d="M244.911,221.655h112.465v8.999c0,20.447-2.409,38.541-7.223,54.287
		c-4.703,14.575-12.637,28.205-23.803,40.896c-25.262,28.447-57.406,42.659-96.417,42.659c-38.076,0-70.69-13.751-97.839-41.25
		c-27.145-27.607-40.715-60.75-40.715-99.416c0-39.484,13.807-72.977,41.421-100.476c27.619-27.619,61.228-41.431,100.83-41.431
		c21.274,0,41.132,4.354,59.582,13.047c17.628,8.702,34.964,22.805,52.006,42.307l-29.263,28.031
		c-22.332-29.734-49.539-44.603-81.619-44.603c-28.789,0-52.945,9.931-72.445,29.795c-19.511,19.512-29.264,43.951-29.264,73.331
		c0,30.321,10.871,55.296,32.606,74.919c20.334,18.21,42.369,27.316,66.109,27.316c20.207,0,38.368-6.808,54.464-20.448
		c16.104-13.747,25.094-30.197,26.976-49.355h-67.871V221.655z"/>
	<polyline fill="#FFFFFF" points="426.454,90.94 607.513,280.355 607.513,91.213 648.582,91.213 648.582,362.712 648.582,362.229 
		648.582,362.712 632.194,362.854 450.096,172.833 450.096,363.388 409.028,363.388 409.028,91.313 	"/>
	<rect x="713.804" y="91.213" fill="#FFFFFF" width="41.077" height="272.174"/>
	<polygon fill="#FFFFFF" points="900.528,129.821 900.528,363.386 859.462,363.386 859.462,129.821 796.878,129.821 796.878,91.211 
		962.93,91.211 962.93,129.821 	"/>
	<polygon fill="#FFFFFF" points="1144.625,129.821 1035.514,129.821 1035.514,195.215 1141.451,195.215 1141.451,233.825 
		1035.514,233.825 1035.514,324.778 1144.625,324.778 1144.625,363.386 994.436,363.386 994.436,91.211 1144.625,91.211 	"/>
</g>
</svg>
