<?xml version="1.0" encoding="utf-8"?>
<!-- Generator: Adobe Illustrator 19.0.0, SVG Export Plug-In . SVG Version: 6.00 Build 0)  -->
<svg version="1.1" xmlns="http://www.w3.org/2000/svg" xmlns:xlink="http://www.w3.org/1999/xlink" x="0px" y="0px"
	 viewBox="0 0 405 236.6" style="enable-background:new 0 0 405 236.6;" xml:space="preserve">
<style type="text/css">
	.st0{fill:none;stroke:url(#XMLID_42_);stroke-width:3;stroke-miterlimit:10;}
	.st1{fill:url(#XMLID_43_);stroke:url(#XMLID_44_);stroke-width:0.75;stroke-miterlimit:10;}
	.st2{fill:none;stroke:url(#XMLID_45_);stroke-width:3;stroke-miterlimit:10;}
	.st3{fill:none;stroke:url(#XMLID_46_);stroke-width:3;stroke-miterlimit:10;}
	.st4{fill:none;stroke:url(#XMLID_47_);stroke-width:3;stroke-miterlimit:10;}
</style>
<g id="Layer_2">
</g>
<g id="Layer_1">
	<radialGradient id="XMLID_42_" cx="-104.2241" cy="302.278" r="0" gradientUnits="userSpaceOnUse">
		<stop  offset="1.578670e-003" style="stop-color:#000000;stop-opacity:0"/>
		<stop  offset="0.4673" style="stop-color:#000000;stop-opacity:0.6512"/>
		<stop  offset="1" style="stop-color:#000000;stop-opacity:0.95"/>
	</radialGradient>
	<path id="XMLID_1_" class="st0" d="M-104.2,302.3"/>
	<radialGradient id="XMLID_43_" cx="96.7459" cy="80.5" r="51.999" gradientUnits="userSpaceOnUse">
		<stop  offset="0" style="stop-color:#FFEF26"/>
		<stop  offset="0" style="stop-color:#FFE926"/>
		<stop  offset="0" style="stop-color:#FDCA22"/>
		<stop  offset="0" style="stop-color:#F6AA1E"/>
		<stop  offset="0" style="stop-color:#F08B1B"/>
		<stop  offset="0" style="stop-color:#EB6F19"/>
		<stop  offset="0" style="stop-color:#E75618"/>
		<stop  offset="0" style="stop-color:#E44016"/>
		<stop  offset="0" style="stop-color:#E22E15"/>
		<stop  offset="0" style="stop-color:#E11E15"/>
		<stop  offset="0" style="stop-color:#E00F14"/>
		<stop  offset="0" style="stop-color:#E00914"/>
		<stop  offset="0" style="stop-color:#A91A17"/>
		<stop  offset="0" style="stop-color:#ECCE00"/>
		<stop  offset="0.653" style="stop-color:#E35810"/>
		<stop  offset="0.8291" style="stop-color:#E00914"/>
		<stop  offset="1" style="stop-color:#A91A17"/>
	</radialGradient>
	<radialGradient id="XMLID_44_" cx="96.7429" cy="80.509" r="52.6848" gradientUnits="userSpaceOnUse">
		<stop  offset="0" style="stop-color:#FFEF26"/>
		<stop  offset="0" style="stop-color:#FFE926"/>
		<stop  offset="0" style="stop-color:#FDCA22"/>
		<stop  offset="0" style="stop-color:#F6AA1E"/>
		<stop  offset="0" style="stop-color:#F08B1B"/>
		<stop  offset="0" style="stop-color:#EB6F19"/>
		<stop  offset="0" style="stop-color:#E75618"/>
		<stop  offset="0" style="stop-color:#E44016"/>
		<stop  offset="0" style="stop-color:#E22E15"/>
		<stop  offset="0" style="stop-color:#E11E15"/>
		<stop  offset="0" style="stop-color:#E00F14"/>
		<stop  offset="0" style="stop-color:#E00914"/>
		<stop  offset="0" style="stop-color:#A91A17"/>
		<stop  offset="0" style="stop-color:#ECCE00"/>
		<stop  offset="0.653" style="stop-color:#E35810"/>
		<stop  offset="0.8291" style="stop-color:#E00914"/>
		<stop  offset="1" style="stop-color:#A91A17"/>
	</radialGradient>
	<path id="XMLID_202_" class="st1" d="M111.8,24L91.1,64.7l-9.4-3.5l-32,11.7l32,64.1l20.6-41.1l8.3,3.4l0.7,0.3l0,0l0.5,0.2
		l32-14.1L111.8,24z M80.4,128.4l-26-52.1l25.6,10.4l0,0.1l0.5,0.2V128.4z M80.4,84L55.2,73.7l25.1-9.2V84z M92.4,68l15.8,5.9
		l-23.7,9.6L92.4,68z M83,64.5l6.9,2.5L83,80.5V64.5z M83,128.4V88.1l16.8,6.8L83,128.4z M101,92.5L85.3,86l23.7-9.7L101,92.5z
		 M110.5,96.3l-7-2.9l7-14V96.3z M110.5,71.9l-4-1.5l-12.9-4.8l16.9-33.2V71.9z M113.2,32.4l26,50.2l-26-9.7V32.4z M113.2,96.3V75.7
		l25.3,9.4L113.2,96.3z"/>
	<radialGradient id="XMLID_45_" cx="271.6137" cy="73.574" r="0" gradientUnits="userSpaceOnUse">
		<stop  offset="1.578670e-003" style="stop-color:#000000;stop-opacity:0"/>
		<stop  offset="0.4673" style="stop-color:#000000;stop-opacity:0.6512"/>
		<stop  offset="1" style="stop-color:#000000;stop-opacity:0.95"/>
	</radialGradient>
	<path id="XMLID_143_" class="st2" d="M271.6,73.6"/>
	<radialGradient id="XMLID_46_" cx="274.1736" cy="302.0728" r="0" gradientUnits="userSpaceOnUse">
		<stop  offset="1.578670e-003" style="stop-color:#000000;stop-opacity:0"/>
		<stop  offset="0.4673" style="stop-color:#000000;stop-opacity:0.6512"/>
		<stop  offset="1" style="stop-color:#000000;stop-opacity:0.95"/>
	</radialGradient>
	<path id="XMLID_214_" class="st3" d="M274.2,302.1"/>
	<radialGradient id="XMLID_47_" cx="658.9262" cy="304.3028" r="0" gradientUnits="userSpaceOnUse">
		<stop  offset="1.578670e-003" style="stop-color:#000000;stop-opacity:0"/>
		<stop  offset="0.4673" style="stop-color:#000000;stop-opacity:0.6512"/>
		<stop  offset="1" style="stop-color:#000000;stop-opacity:0.95"/>
	</radialGradient>
	<path id="XMLID_385_" class="st4" d="M658.9,304.3"/>
	<path id="XMLID_69_" d="M118.4,117.9v53.4h-8.1v-53.4H118.4z"/>
	<path id="XMLID_67_" d="M157.1,143.2h22.3v1.8c0,4.1-0.5,7.7-1.4,10.8c-0.9,2.9-2.5,5.6-4.7,8.1c-5,5.7-11.4,8.5-19.2,8.5
		c-7.6,0-14-2.7-19.4-8.2c-5.4-5.5-8.1-12.1-8.1-19.8c0-7.8,2.7-14.5,8.2-20c5.5-5.5,12.2-8.2,20-8.2c4.2,0,8.2,0.9,11.8,2.6
		c3.5,1.7,6.9,4.5,10.3,8.4l-5.8,5.6c-4.4-5.9-9.8-8.9-16.2-8.9c-5.7,0-10.5,2-14.4,5.9c-3.9,3.9-5.8,8.7-5.8,14.6
		c0,6,2.2,11,6.5,14.9c4,3.6,8.4,5.4,13.1,5.4c4,0,7.6-1.4,10.8-4.1c3.2-2.7,5-6,5.4-9.8h-13.5V143.2z"/>
	<path id="XMLID_65_" d="M193.2,117.2l36,37.6v-37.6h8.2v54v-0.1v0.1l-3.3,0l-36.2-37.8v37.9h-8.2v-54.1"/>
	<path id="XMLID_63_" d="M258.4,117.3v54.1h-8.2v-54.1H258.4z"/>
	<path id="XMLID_61_" d="M287.4,124.9v46.4h-8.2v-46.4h-12.4v-7.7h33v7.7H287.4z"/>
	<path id="XMLID_55_" d="M335.9,124.9h-21.7v13h21.1v7.7h-21.1v18.1h21.7v7.7H306v-54.1h29.8V124.9z"/>
</g>
</svg>
