<?xml version="1.0" encoding="utf-8"?>
<!-- Generator: Adobe Illustrator 19.0.0, SVG Export Plug-In . SVG Version: 6.00 Build 0)  -->
<svg version="1.1" id="Layer_1" xmlns="http://www.w3.org/2000/svg" xmlns:xlink="http://www.w3.org/1999/xlink" x="0px" y="0px"
	 viewBox="279 67.9 1157.6 466.1" style="enable-background:new 279 67.9 1157.6 466.1;" xml:space="preserve">
<style type="text/css">
	.st0{fill:#1D1D1B;}
</style>
<rect x="288.8" y="162.4" class="st0" width="40.6" height="268.9"/>
<g>
	<path class="st0" d="M523.9,289.6h112.5v9c0,20.4-2.4,38.5-7.2,54.3c-4.7,14.6-12.6,28.2-23.8,40.9c-25.3,28.4-57.4,42.7-96.4,42.7
		c-38.1,0-70.7-13.8-97.8-41.3c-27.1-27.6-40.7-60.8-40.7-99.4c0-39.5,13.8-73,41.4-100.5c27.6-27.6,61.2-41.4,100.8-41.4
		c21.3,0,41.1,4.4,59.6,13c17.6,8.7,35,22.8,52,42.3l-29.3,28c-22.3-29.7-49.5-44.6-81.6-44.6c-28.8,0-52.9,9.9-72.4,29.8
		c-19.5,19.5-29.3,44-29.3,73.3c0,30.3,10.9,55.3,32.6,74.9c20.3,18.2,42.4,27.3,66.1,27.3c20.2,0,38.4-6.8,54.5-20.4
		c16.1-13.7,25.1-30.2,27-49.4h-67.9V289.6L523.9,289.6z"/>
	<polyline class="st0" points="705.5,158.9 886.5,348.3 886.5,159.1 927.6,159.1 927.6,430.6 927.6,430.1 927.6,430.6 911.2,430.8 
		729.1,240.8 729.1,431.3 688,431.3 688,159.2 	"/>
	<rect x="992.8" y="159.1" class="st0" width="41.1" height="272.2"/>
	<polygon class="st0" points="1179.5,197.7 1179.5,431.3 1138.5,431.3 1138.5,197.7 1075.9,197.7 1075.9,159.1 1241.9,159.1 
		1241.9,197.7 	"/>
	<polygon class="st0" points="1423.6,197.7 1314.5,197.7 1314.5,263.1 1420.5,263.1 1420.5,301.7 1314.5,301.7 1314.5,392.7 
		1423.6,392.7 1423.6,431.3 1273.4,431.3 1273.4,159.1 1423.6,159.1 	"/>
</g>
</svg>
